<?xml version="1.0" encoding="UTF-8" standalone="no"?>
<!-- Created with Inkscape (http://www.inkscape.org/) -->

<svg
   width="42.551182mm"
   height="40.342186mm"
   viewBox="0 0 42.551182 40.342186"
   version="1.1"
   id="svg609"
   inkscape:version="1.2 (dc2aedaf03, 2022-05-15)"
   sodipodi:docname="IconCSV.svg"
   xmlns:inkscape="http://www.inkscape.org/namespaces/inkscape"
   xmlns:sodipodi="http://sodipodi.sourceforge.net/DTD/sodipodi-0.dtd"
   xmlns="http://www.w3.org/2000/svg"
   xmlns:svg="http://www.w3.org/2000/svg">
  <sodipodi:namedview
     id="namedview611"
     pagecolor="#ffffff"
     bordercolor="#999999"
     borderopacity="1"
     inkscape:showpageshadow="0"
     inkscape:pageopacity="0"
     inkscape:pagecheckerboard="0"
     inkscape:deskcolor="#d1d1d1"
     inkscape:document-units="mm"
     showgrid="false"
     inkscape:zoom="1.6819304"
     inkscape:cx="122.18104"
     inkscape:cy="68.671094"
     inkscape:window-width="1366"
     inkscape:window-height="684"
     inkscape:window-x="0"
     inkscape:window-y="0"
     inkscape:window-maximized="1"
     inkscape:current-layer="layer1" />
  <defs
     id="defs606" />
  <g
     inkscape:label="Capa 1"
     inkscape:groupmode="layer"
     id="layer1"
     transform="translate(-91.98715,-38.97746)">
    <path
       id="path316"
       style="fill:#ff6600;stroke-width:0.0533214"
       d="m 115.9676,38.977466 c -0.0883,0 -6.92395,1.282075 -20.82147,3.905188 L 91.98715,43.479 v 15.666744 c 0,12.487591 0.01356,15.670861 0.06666,15.686381 0.0367,0.0107 1.050694,0.202538 2.253092,0.42633 2.477556,0.461128 19.288368,3.622291 20.715538,3.89537 0.51321,0.09816 0.95668,0.172364 0.98598,0.165364 0.0568,-0.01375 0.11493,-1.394547 0.12713,-3.047876 l 0.007,-0.964282 8.50905,-0.03721 8.50955,-0.03669 0.26924,-0.136426 c 0.39769,-0.201528 0.76617,-0.572842 0.94929,-0.956531 l 0.15865,-0.332279 -5.2e-4,-14.655953 -5.1e-4,-14.655953 -0.13074,-0.28112 c -0.18013,-0.386901 -0.61423,-0.830196 -1.00356,-1.024743 l -0.32143,-0.160197 h -5.90145 c -3.24575,0 -7.05675,-0.01621 -8.46925,-0.03566 l -2.56832,-0.03514 v -1.022677 c 0,-0.562381 -0.0158,-1.457993 -0.0351,-1.990576 -0.033,-0.91185 -0.0413,-0.968416 -0.139,-0.968416 z m 0.17415,5.651851 h 8.37106 8.37159 v 14.530379 14.529863 h -8.37159 -8.37158 c 0.009,-2.229216 0.0128,-4.449548 0.015,-6.666777 h 5.8508 v -2.369364 h -5.84977 c 6e-5,-0.268662 1e-5,-0.537052 0,-0.805636 h 5.84977 v -2.369364 h -5.85029 c -1.5e-4,-0.268426 2e-4,-0.537238 0,-0.805636 h 5.85029 v -2.369364 h -5.85184 c -2.9e-4,-0.267846 -2e-4,-0.537767 -5.1e-4,-0.805636 h 5.85235 v -2.369364 h -5.85494 c -3.5e-4,-0.268009 -1.6e-4,-0.537554 -5.1e-4,-0.805636 h 5.85545 v -2.369364 h -5.85752 c -3.3e-4,-0.268371 -7.2e-4,-0.537141 -0.001,-0.805636 h 5.85855 v -2.369364 h -5.86114 c -0.001,-1.385026 -0.004,-2.758753 -0.004,-4.149101 z m 7.39748,4.149101 v 2.369364 h 6.64817 v -2.369364 z m 4.99143,3.450435 v 13.831714 h 1.69757 V 52.228853 Z m -14.65337,1.87017 -2.5306,9.300208 -1.33738,0.0217 -2.69493,-9.215975 1.58957,-0.02584 1.7849,6.942212 1.59939,-6.996472 z m -10.46293,0.01395 c 1.1178,-0.01801 1.94812,0.319773 2.4908,1.013892 0.36187,0.469635 0.54711,1.107499 0.55604,1.913578 l -1.47588,0.02377 c -0.0575,-0.85491 -0.50181,-1.327508 -1.33273,-1.417484 l -0.29352,-0.0072 c -0.63091,0.01016 -1.03978,0.241894 -1.2268,0.695565 l -0.0103,0.0124 c -0.0534,0.137297 -0.0789,0.290954 -0.077,0.460437 0.004,0.388571 0.15481,0.669325 0.45166,0.842326 0.16225,0.09661 0.38806,0.181897 0.67696,0.255798 0.007,-1.1e-4 0.0137,0.0037 0.0207,0.01189 l 0.31936,0.06925 1.20148,0.259933 c 1.02097,0.219218 1.65968,0.713048 1.91512,1.48208 0.0923,0.283792 0.14068,0.63049 0.14521,1.03973 0.0131,1.182248 -0.40449,2.03423 -1.25263,2.556433 -0.50408,0.314071 -1.1247,0.4775 -1.8619,0.489375 -1.5087,0.0243 -2.49442,-0.561833 -2.95693,-1.757515 -0.14461,-0.361504 -0.23,-0.777588 -0.2558,-1.248503 l 1.53789,-0.0248 c 0.0505,0.842619 0.46588,1.334435 1.24592,1.474845 l 0.49403,0.02894 c 0.7612,-0.01226 1.24393,-0.27418 1.44746,-0.785999 0.0602,-0.141541 0.0888,-0.301289 0.0868,-0.47904 -0.005,-0.491915 -0.21153,-0.844213 -0.61857,-1.056783 -0.20696,-0.108297 -0.48555,-0.196844 -0.83612,-0.265617 l -1.07797,-0.236678 c -1.01407,-0.215195 -1.66486,-0.62832 -1.95285,-1.239718 l -0.0103,-0.0124 -5.1e-4,-0.0124 -0.0103,-0.0124 c -0.13721,-0.31201 -0.20815,-0.705426 -0.21342,-1.180806 -0.0134,-1.211185 0.41606,-2.051409 1.28881,-2.52026 0.43975,-0.238614 0.96824,-0.362645 1.58543,-0.372587 z m -7.00009,0.112655 c 1.131519,-0.01823 2.007425,0.418157 2.627747,1.30948 l 0.07338,0.110588 c 0.300058,0.462362 0.479731,1.069049 0.539502,1.820561 l -1.506885,0.02429 c -0.09062,-0.440929 -0.210833,-0.76979 -0.360701,-0.986503 -0.299829,-0.441694 -0.734092,-0.657708 -1.30328,-0.64854 -0.805778,0.01298 -1.371944,0.491284 -1.697571,1.435055 -0.12951,0.382458 -0.21028,0.828329 -0.242362,1.337386 l -0.01447,0.520898 c 0.01604,1.446808 0.357524,2.411076 1.024743,2.89233 0.276553,0.198135 0.593213,0.294099 0.949813,0.288355 0.778348,-0.01254 1.29348,-0.401015 1.545642,-1.165821 0.06967,-0.21198 0.113617,-0.450311 0.131258,-0.715201 l 1.537374,-0.02481 c -0.04441,1.253461 -0.46223,2.20049 -1.254187,2.841687 -0.543942,0.430479 -1.204994,0.652021 -1.983341,0.664559 -1.206954,0.01944 -2.130375,-0.507334 -2.769857,-1.580265 -0.492768,-0.831361 -0.746245,-1.897678 -0.760677,-3.199805 -0.01952,-1.760972 0.38771,-3.080359 1.221631,-3.957898 0.596604,-0.629782 1.343883,-0.951878 2.24224,-0.966349 z m 29.47055,1.542024 v 10.292912 h 1.69757 V 55.767655 Z m -2.37556,5.294768 v 5.009513 h 1.69757 V 61.06242 Z" />
  </g>
</svg>
