<?xml version="1.0" encoding="UTF-8" standalone="no"?>
<!-- Created with Inkscape (http://www.inkscape.org/) -->

<svg
   width="101.6mm"
   height="101.59995mm"
   viewBox="0 0 101.6 101.59994"
   version="1.1"
   id="svg609"
   inkscape:version="1.2 (dc2aedaf03, 2022-05-15)"
   sodipodi:docname="IconXlsxDownload.svg"
   xml:space="preserve"
   xmlns:inkscape="http://www.inkscape.org/namespaces/inkscape"
   xmlns:sodipodi="http://sodipodi.sourceforge.net/DTD/sodipodi-0.dtd"
   xmlns="http://www.w3.org/2000/svg"
   xmlns:svg="http://www.w3.org/2000/svg"><sodipodi:namedview
     id="namedview611"
     pagecolor="#ffffff"
     bordercolor="#999999"
     borderopacity="1"
     inkscape:showpageshadow="0"
     inkscape:pageopacity="0"
     inkscape:pagecheckerboard="0"
     inkscape:deskcolor="#d1d1d1"
     inkscape:document-units="mm"
     showgrid="false"
     inkscape:zoom="0.4204826"
     inkscape:cx="223.55265"
     inkscape:cy="224.74176"
     inkscape:window-width="1366"
     inkscape:window-height="684"
     inkscape:window-x="0"
     inkscape:window-y="0"
     inkscape:window-maximized="1"
     inkscape:current-layer="layer1" /><defs
     id="defs606" /><g
     inkscape:label="Capa 1"
     inkscape:groupmode="layer"
     id="layer1"
     transform="translate(-138.21774,-39.232589)"><path
       id="path316-7"
       style="fill:#165016;stroke-width:0.130667"
       d="m 195.39771,39.232589 c -0.2112,0 -16.51362,3.227398 -49.65381,9.833508 l -7.52616,1.497067 v 39.452889 c 0,31.446127 0.0324,39.462777 0.15916,39.501977 0.0768,0.0192 2.51519,0.51812 5.3759,1.07487 5.91152,1.1615 46.0023,9.11757 49.4006,9.80871 l 0.092,0.007 c 1.20957,0.25226 2.29061,0.44042 2.36161,0.42272 0.21696,-0.0346 0.35326,-3.51141 0.38396,-7.67551 l 0.0155,-2.42879 1.81023,-0.008 c -0.24932,-0.30464 -0.46652,-0.56707 -0.72089,-0.87849 -2.61982,-0.53507 0.93415,0.92781 -2.70681,-0.85112 0.17459,0.28341 -10.56326,0.24558 -12.16515,-0.0429 -4.29207,-0.7729 -7.83729,-3.10076 -10.21178,-6.70501 -2.64672,-4.01746 -3.23133,-9.25923 -1.53634,-13.77177 0.19726,-0.52519 0.4298,-1.03952 0.68885,-1.54254 -0.45274,-0.0375 -0.83826,-0.0705 -0.86042,-0.078 -0.23039,-0.073 -5.16671,-11.7321 -5.35678,-12.749606 l -0.19223,-0.921391 -0.38396,1.05575 c -0.23039,0.86968 -4.79995,11.451797 -4.99194,11.758977 -0.096,0.0768 -6.75975,-0.38048 -6.85385,-0.48008 -0.0768,-0.0749 0.11487,-0.44314 4.33876,-8.775174 l 3.76307,-7.414534 -3.74395,-8.080644 c -2.15035,-4.44439 -3.72068,-8.108749 -3.68608,-8.143689 0.0768,-0.09599 6.95206,-0.599135 7.02696,-0.518315 0.15359,0.176623 4.22376,10.623956 4.41575,11.564669 0.19392,0.575947 0.34746,0.974804 0.38396,0.86403 0,-0.115189 0.19196,-0.767611 0.38395,-1.477946 0.3648,-1.267083 4.70435,-11.344392 4.89634,-11.632365 0.096,-0.07679 1.4207,-0.23064 3.39825,-0.364835 1.74713,-0.119029 3.47689,-0.249248 3.66696,-0.287838 0.24192,-0.04569 0.38395,-0.01523 0.38395,0.0894 0,0.08639 -1.9775,4.137426 -4.39663,8.998417 l -4.39663,8.838737 4.53099,8.994283 c 0.71592,1.419088 1.23363,2.462114 1.83658,3.667994 0.97139,-0.78116 2.02693,-1.43798 3.13418,-1.934766 1.09463,-0.491137 2.7143,-0.994014 3.70106,-1.149284 l 0.62942,-0.09922 0.0951,-1.33997 c 0.33845,-4.768118 3.47061,-9.441388 7.76852,-11.591024 1.68674,-0.843633 3.40935,-1.347856 5.15834,-1.52032 v -0.383439 -1.881539 h 7.00785 4.73821 c 0.7238,-0.476537 1.47638,-0.886521 2.26032,-1.2361 l -0.0253,-3.363619 -0.0325,-4.600236 -6.9696,-0.03462 -6.96909,-0.03462 v -1.74718 -1.74718 h 6.93085 6.91172 v -4.565096 -4.565613 h -6.91172 -6.93085 V 56.7509 53.462211 h 19.96364 19.96364 v 36.589498 l -0.016,15.038871 c 2.6334,3.81819 3.45271,8.75961 2.04122,13.26069 -0.4785,1.52588 -1.17875,2.93846 -2.05982,4.20647 l -0.004,4.10259 h -4.22041 c -1.76383,1.14867 -3.77622,1.94181 -5.93762,2.29236 -1.32807,0.2154 -8.37468,0.34328 -8.37468,0.15193 -3.04261,1.47606 0.13035,0.22223 -2.59675,0.68627 -0.24702,0.30247 -0.45796,0.55842 -0.70021,0.85472 l 2.41536,-0.0109 20.29385,-0.0925 0.57619,-0.34571 c 0.92157,-0.50875 1.8815,-1.44925 2.26549,-2.40916 l 0.38396,-0.84491 -0.002,-36.906274 -0.002,-36.906274 -0.38396,-0.710551 c -0.44159,-0.967591 -1.43987,-2.08105 -2.39985,-2.580204 l -0.76792,-0.403076 h -14.07304 c -7.73738,0 -16.81914,-0.03992 -20.19825,-0.08888 l -6.12469,-0.0894 v -2.57452 c 0,-1.41491 -0.0381,-3.668737 -0.0842,-5.012614 -0.192,-2.295916 -0.19197,-2.438094 -0.38396,-2.438094 z m 17.97462,20.810099 v 4.565613 4.565096 h 7.92923 7.92923 v -4.565096 -4.565613 h -7.92923 z m 0,12.620935 v 4.632792 2.280998 c 0.4609,-0.09227 0.93186,-0.16916 1.4149,-0.22996 3.80988,-0.479551 7.79667,0.487481 11.05359,2.581238 h 3.38997 v -4.632276 -4.632792 h -7.92923 z"
       sodipodi:nodetypes="sccscccccccccccssccccccccccccccccccsccccscccsccccccccccccccccccccccccscccscccccccccccccsccscsccccccccccccscccccc" /><path
       style="fill:#28220b;stroke-width:0.7350125;stroke:#ffffff;stroke-opacity:0.72941178;stroke-dasharray:none"
       d="m 197.09583,129.84027 -8.61559,-10.54817 5.99399,-0.0401 5.99399,-0.0401 v -7.12742 -7.12741 h 5.36606 5.36606 v 7.12741 7.12742 l 5.97826,0.0401 5.97826,0.0401 -8.57388,10.49856 c -4.71563,5.77421 -8.64085,10.52089 -8.72272,10.54817 -0.0819,0.0273 -4.02586,-4.69706 -8.76443,-10.49856 z m -14.87222,-0.89403 c -4.29207,-0.7729 -7.83684,-3.10033 -10.21133,-6.70459 -2.64672,-4.01746 -3.23158,-9.25931 -1.53659,-13.77186 1.39844,-3.72309 4.42675,-6.9727 7.98603,-8.569647 1.09464,-0.491137 2.71454,-0.994204 3.7013,-1.149474 l 0.62932,-0.099 0.0951,-1.339771 c 0.33845,-4.768123 3.47063,-9.441529 7.76855,-11.591167 3.7136,-1.857378 7.59959,-2.089388 11.56329,-0.690374 l 1.27156,0.448807 1.36337,-1.341244 c 2.80399,-2.758502 5.9876,-4.293853 9.93326,-4.79049 4.97851,-0.626647 10.26049,1.214021 13.81898,4.81564 4.20241,4.253356 5.87293,10.305913 4.42701,16.03977 l -0.38686,1.53412 0.94191,0.87205 c 4.27361,3.9566 5.93079,10.18556 4.18821,15.74244 -1.75118,5.58429 -6.45738,9.66642 -12.22217,10.60141 -1.32807,0.2154 -8.37489,0.34298 -8.37489,0.15163 0,-0.0421 2.04268,-2.57755 4.53928,-5.63437 l 4.53928,-5.55785 -6.76236,-0.0399 -6.76236,-0.0399 v -7.12759 -7.1276 h -6.82256 -6.82256 v 7.12919 7.12919 h -6.82257 c -3.75241,0 -6.82256,0.0366 -6.82256,0.0812 0,0.0447 1.98621,2.51114 4.41381,5.48104 2.42759,2.96991 4.46693,5.48608 4.53187,5.59148 0.17459,0.28341 -10.56343,0.24537 -12.16532,-0.0431 z"
       id="path321" /><path
       style="fill:#decd87;stroke-width:0.143162"
       d="m 253.67548,10.207205 c -0.24574,-0.10754 -0.63228,-0.4387203 -0.85897,-0.7359303 l -0.41219,-0.5404 v -11.13147 c 0,-11.0193997 0.003,-11.1354497 0.29518,-11.5268197 0.16234,-0.21744 0.47292,-0.52817 0.69019,-0.69051 0.37242,-0.27829 0.61552,-0.2976 4.25021,-0.33754 l 3.85519,-0.0424 v 2.29716 2.29716 h -2.29058 -2.29059 v 8.0170497 8.01706 h 11.45294 11.45294 v -8.01706 -8.0170497 h -2.29059 -2.29059 v -2.29716 -2.29716 l 3.8552,0.0424 c 3.63469,0.0399 3.87778,0.0593 4.25021,0.33754 0.21726,0.16234 0.52785,0.47307 0.69019,0.69051 0.29221,0.39138 0.29517,0.50728 0.29517,11.5409697 0,11.03369 -0.003,11.14959 -0.29517,11.54097 -0.16234,0.21744 -0.47305,0.52817 -0.69048,0.6905103 -0.39246,0.29305 -0.49896,0.2954 -14.80839,0.32644 -11.92037,0.0259 -14.49036,-0.003 -14.85987,-0.16427 z m 11.20085,-11.3199403 -3.38287,-4.5096 h 2.29141 2.2914 v -6.8717597 -6.87176 h 2.29059 2.29059 v 6.87176 6.8717597 h 2.2914 2.29141 l -3.38287,4.5096 c -1.86057,2.48028 -3.43131,4.50959 -3.49053,4.50959 -0.0592,0 -1.62996,-2.02931 -3.49053,-4.50959 z m -19.20061,-2.3778 c -1.82088,-0.26258 -4.09419,-1.16523 -5.75469,-2.28497 -1.16276,-0.78409 -3.20209,-2.97668 -3.92619,-4.22125 -1.43804,-2.4716997 -1.89706,-4.1844297 -1.89706,-7.0785097 0,-2.89408 0.45902,-4.606815 1.89706,-7.078517 0.7241,-1.244568 2.76343,-3.437166 3.92619,-4.221257 1.45015,-0.97789 3.47963,-1.830876 5.27589,-2.217447 0.33592,-0.07229 0.39137,-0.169374 0.47641,-0.834082 0.0529,-0.413746 0.24933,-1.371259 0.43644,-2.127806 1.8016,-7.284748 7.63641,-13.120756 14.94034,-14.943411 9.80297,-2.446283 19.95037,2.547614 23.92251,11.773132 l 0.53954,1.253098 1.62811,0.08989 c 2.75398,0.152055 4.70485,0.67148 6.99571,1.862623 4.24434,2.206879 7.28358,6.301006 8.32784,11.218366 0.10033,0.472433 0.18242,1.793101 0.18242,2.934821 0,1.14171 -0.0821,2.46238 -0.18242,2.93481 -1.04222,4.90777 -4.09968,9.0254597 -8.32784,11.2157297 -2.1419,1.10954 -3.94069,1.63254 -6.28825,1.82832 l -1.15617,0.0964 v -2.29061 -2.29062 l 1.03173,-0.0959 c 4.79644,-0.44578 8.77571,-3.8179397 10.08129,-8.5432097 0.35424,-1.28208 0.35513,-4.418987 0.002,-5.71819 -0.87103,-3.201226 -3.20507,-6.021473 -6.15651,-7.438996 -1.80787,-0.868286 -2.72599,-1.06561 -4.95814,-1.06561 -1.40219,0 -2.1881,0.0695 -2.86323,0.253196 -1.37211,0.373341 -3.13866,1.271485 -4.24355,2.157496 l -0.97348,0.780634 -1.57897,-1.530841 c -0.86843,-0.841963 -1.57896,-1.590525 -1.57896,-1.663472 0,-0.314924 2.47257,-2.100484 3.90168,-2.817593 0.84616,-0.42459 1.56348,-0.78626 1.59406,-0.80371 0.0306,-0.01745 -0.20325,-0.565044 -0.5196,-1.216875 -2.10111,-4.329313 -5.91498,-7.381375 -10.7346,-8.590412 -1.05828,-0.265476 -1.64035,-0.313957 -3.69021,-0.307359 -2.15829,0.0069 -2.59316,0.05035 -3.84207,0.383478 -4.63286,1.235737 -8.32226,4.238163 -10.41345,8.47444 -1.02849,2.083508 -1.50953,3.869776 -1.67918,6.235488 -0.0975,1.360087 -0.18283,1.800706 -0.40659,2.100415 -0.56575,0.757752 -0.95739,0.9323 -2.36701,1.05492 -2.54484,0.221369 -4.30021,1.013607 -5.99003,2.703423 -3.61861,3.618618 -3.62114,9.280778 -0.006,12.896158 1.90621,1.9062097 4.00656,2.7040897 7.13098,2.7089097 l 1.61057,0.003 v 2.29059 2.29059 l -1.75373,-0.0175 c -0.96456,-0.01 -2.14027,-0.0732 -2.61271,-0.14133 z"
       id="path335" /><path
       style="fill:#165016;stroke-width:0.130667"
       d="m 80.969299,140.4014 c -3.398289,-0.69114 -43.48851,-8.64689 -49.399997,-9.80839 -2.860705,-0.55675 -5.29903,-1.0559 -5.37582,-1.0751 -0.12672,-0.0392 -0.15936,-8.05558 -0.15936,-39.501735 V 50.563394 l 7.526158,-1.497463 c 33.14005,-6.606117 49.44223,-9.833342 49.653427,-9.833342 0.19199,0 0.19199,0.142259 0.383987,2.438177 0.0461,1.343878 0.0845,3.597752 0.0845,5.012663 v 2.574484 l 6.124606,0.08908 c 3.379089,0.04896 12.4604,0.08908 20.19779,0.08908 h 14.07323 l 0.76797,0.403163 c 0.95998,0.499155 1.95835,1.612653 2.39994,2.580245 l 0.38399,0.710335 0.002,36.906325 0.002,36.906329 -0.38399,0.84472 c -0.38399,0.95991 -1.34397,1.90063 -2.26554,2.40938 l -0.57598,0.34557 -20.29386,0.0927 -20.291846,0.0925 -0.0154,2.42858 c -0.0307,4.1641 -0.16703,7.6409 -0.383987,7.67546 -0.071,0.0177 -1.151964,-0.1701 -2.361528,-0.42236 z M 123.56709,90.051884 V 53.462137 H 103.60347 83.639934 v 3.28866 3.29058 h 6.93098 6.911771 v 4.565343 4.565343 h -6.911771 -6.93098 v 1.74704 1.747041 l 6.96938,0.03475 6.969371,0.03475 0.0326,4.5999 0.0346,4.5999 h -7.007771 -7.00778 v 1.881428 1.881429 h 7.00778 7.007771 v 4.565343 4.565343 h -7.007771 -7.00778 v 1.74704 1.747041 l 6.96938,0.03475 6.950171,0.03475 0.0326,4.597982 0.0346,4.59798 h -7.007771 -7.00778 v 1.61266 1.61265 h 6.93098 6.911771 v 4.63253 4.63254 h -6.911771 -6.93098 v 3.29058 3.29058 h 19.963536 19.96362 z m -22.37891,25.377966 v -4.63253 h 7.92938 7.92939 v 4.63253 4.63254 h -7.92939 -7.92938 z m 0.0307,-12.4539 0.0326,-4.599898 h 7.89099 7.87179 l 0.0326,4.599898 0.0326,4.59798 h -7.94859 -7.94858 z m -0.0307,-12.722676 v -4.565343 h 7.92938 7.92939 v 4.565343 4.565343 h -7.92939 -7.92938 z m 0,-12.956897 V 72.66384 h 7.92938 7.92939 v 4.632537 4.632537 h -7.92939 -7.92938 z m 0,-12.688121 v -4.565343 h 7.92938 7.92939 v 4.565343 4.565343 h -7.92939 -7.92938 z M 65.838276,107.3017 c 0,-0.0772 -2.035138,-4.18714 -4.531053,-9.134525 l -4.531055,-8.994379 4.396655,-8.838873 c 2.419115,-4.860996 4.396656,-8.911826 4.396656,-8.998218 0,-0.10463 -0.14207,-0.135347 -0.38399,-0.08966 -0.190067,0.03859 -1.919938,0.168945 -3.667069,0.287974 -1.977538,0.134196 -3.302311,0.287974 -3.398308,0.364767 -0.19199,0.287973 -4.531046,10.365133 -4.895843,11.632217 -0.19199,0.710336 -0.383987,1.363076 -0.383987,1.478265 -0.0365,0.110774 -0.19007,-0.287973 -0.38399,-0.863921 -0.191987,-0.940714 -4.262256,-11.3884 -4.415843,-11.565023 -0.0749,-0.08082 -6.950181,0.422361 -7.026981,0.518352 -0.0346,0.03494 1.535951,3.699502 3.686289,8.143896 l 3.743879,8.080543 -3.763079,7.414362 c -4.223866,8.332043 -4.415866,8.700653 -4.339066,8.775523 0.0941,0.0996 6.758181,0.55675 6.854181,0.47996 0.19199,-0.30718 4.761443,-10.889253 4.991833,-11.758934 l 0.383987,-1.055904 0.192,0.921516 c 0.190067,1.017507 5.12623,12.676602 5.35662,12.749562 0.103677,0.0353 6.009413,0.47995 7.545364,0.57595 0.15744,0.009 0.192,-0.0461 0.192,-0.12307 z"
       id="path337" /></g></svg>
