<?xml version="1.0" encoding="UTF-8" standalone="no"?>
<!-- Created with Inkscape (http://www.inkscape.org/) -->

<svg
   width="101.6mm"
   height="101.59995mm"
   viewBox="0 0 101.6 101.59993"
   version="1.1"
   id="svg609"
   inkscape:version="1.2 (dc2aedaf03, 2022-05-15)"
   sodipodi:docname="IconXlsxEmpty.svg"
   xml:space="preserve"
   xmlns:inkscape="http://www.inkscape.org/namespaces/inkscape"
   xmlns:sodipodi="http://sodipodi.sourceforge.net/DTD/sodipodi-0.dtd"
   xmlns="http://www.w3.org/2000/svg"
   xmlns:svg="http://www.w3.org/2000/svg"><sodipodi:namedview
     id="namedview611"
     pagecolor="#ffffff"
     bordercolor="#999999"
     borderopacity="1"
     inkscape:showpageshadow="0"
     inkscape:pageopacity="0"
     inkscape:pagecheckerboard="0"
     inkscape:deskcolor="#d1d1d1"
     inkscape:document-units="mm"
     showgrid="false"
     inkscape:zoom="0.4204826"
     inkscape:cx="0"
     inkscape:cy="224.74176"
     inkscape:window-width="1366"
     inkscape:window-height="684"
     inkscape:window-x="0"
     inkscape:window-y="0"
     inkscape:window-maximized="1"
     inkscape:current-layer="layer1" /><defs
     id="defs606" /><g
     inkscape:label="Capa 1"
     inkscape:groupmode="layer"
     id="layer1"
     transform="translate(-26.034122,-39.232589)"><path
       style="fill:#000000;stroke-width:0.130667"
       d="m 80.969516,140.4014 c -3.398302,-0.69114 -43.488682,-8.64689 -49.400192,-9.80839 -2.860716,-0.55675 -5.299051,-1.0559 -5.375841,-1.0751 -0.126721,-0.0392 -0.159361,-8.05558 -0.159361,-39.501735 V 50.563394 l 7.526188,-1.497463 c 33.140181,-6.606117 49.442425,-9.833342 49.653623,-9.833342 0.191991,0 0.191991,0.142259 0.383989,2.438177 0.0461,1.343878 0.0845,3.597752 0.0845,5.012663 v 2.574484 l 6.12463,0.08908 c 3.379103,0.04896 12.460448,0.08908 20.197868,0.08908 h 14.07329 l 0.76797,0.403163 c 0.95998,0.499155 1.95836,1.612653 2.39995,2.580245 l 0.38399,0.710335 0.002,36.906325 0.002,36.906329 -0.38399,0.84472 c -0.38399,0.95991 -1.34397,1.90063 -2.26555,2.40938 l -0.57598,0.34557 -20.29394,0.0927 -20.291927,0.0925 -0.0154,2.42858 c -0.0307,4.1641 -0.167031,7.6409 -0.383989,7.67546 -0.071,0.0177 -1.151968,-0.1701 -2.361537,-0.42236 z M 123.56748,90.051884 V 53.462137 h -19.9637 -19.963618 v 3.28866 3.29058 h 6.931007 6.911799 v 4.565343 4.565343 h -6.911799 -6.931007 v 1.74704 1.747041 l 6.969408,0.03475 6.969398,0.03475 0.0326,4.5999 0.0346,4.5999 H 90.63837 83.630562 v 1.881428 1.881429 h 7.007808 7.007798 v 4.565343 4.565343 H 90.63837 83.630562 v 1.74704 1.747041 l 6.969407,0.03475 6.950199,0.03475 0.0326,4.597982 0.0346,4.59798 H 90.60957 83.601762 v 1.61266 1.61265 h 6.931007 6.911799 v 4.63253 4.63254 h -6.911799 -6.931007 v 3.29058 3.29058 h 19.963618 19.9637 z m -22.379,25.377966 v -4.63253 h 7.92941 7.92942 v 4.63253 4.63254 h -7.92942 -7.92941 z m 0.0307,-12.4539 0.0326,-4.599898 h 7.89102 7.87182 l 0.0326,4.599898 0.0326,4.59798 h -7.94862 -7.94861 z m -0.0307,-12.722676 v -4.565343 h 7.92941 7.92942 v 4.565343 4.565343 h -7.92942 -7.92941 z m 0,-12.956897 V 72.66384 h 7.92941 7.92942 v 4.632537 4.632537 h -7.92942 -7.92941 z m 0,-12.688121 v -4.565343 h 7.92941 7.92942 v 4.565343 4.565343 h -7.92942 -7.92941 z M 65.838433,107.3017 c 0,-0.0772 -2.035146,-4.18714 -4.53107,-9.134525 l -4.531073,-8.994379 4.396672,-8.838873 c 2.419125,-4.860996 4.396673,-8.911826 4.396673,-8.998218 0,-0.10463 -0.14207,-0.135347 -0.383991,-0.08966 -0.190068,0.03859 -1.919946,0.168945 -3.667084,0.287974 -1.977545,0.134196 -3.302324,0.287974 -3.398321,0.364767 -0.191991,0.287973 -4.531064,10.365133 -4.895862,11.632217 -0.191991,0.710336 -0.383989,1.363076 -0.383989,1.478265 -0.0365,0.110774 -0.190071,-0.287973 -0.383991,-0.863921 -0.191988,-0.940714 -4.262273,-11.3884 -4.415861,-11.565023 -0.0749,-0.08082 -6.950208,0.422361 -7.027009,0.518352 -0.0346,0.03494 1.535957,3.699502 3.686304,8.143896 l 3.743894,8.080543 -3.763094,7.414362 c -4.223883,8.332043 -4.415884,8.700653 -4.339083,8.775523 0.0941,0.0996 6.758207,0.55675 6.854208,0.47996 0.19199,-0.30718 4.761462,-10.889253 4.991852,-11.758934 l 0.383989,-1.055904 0.192001,0.921516 c 0.190068,1.017507 5.12625,12.676602 5.356641,12.749562 0.103677,0.0353 6.009437,0.47995 7.545394,0.57595 0.15744,0.009 0.192001,-0.0461 0.192001,-0.12307 z"
       id="path337" /><path
       style="fill:#ff0000;stroke-width:0.561095"
       d="m 86.111985,136.97442 c -6.099665,-1.39498 -10.74147,-4.06038 -15.691238,-9.01017 -8.302434,-8.30244 -11.358353,-18.39201 -8.97592,-29.63535 1.327206,-6.263405 3.87026,-10.756857 8.968709,-15.84716 8.286381,-8.273171 18.409057,-11.356848 29.537294,-8.997948 9.51116,2.01613 18.22515,8.973438 22.40147,17.885482 4.39299,9.374346 4.39299,18.333066 0,27.707436 -1.85057,3.94905 -3.06725,5.62362 -6.6113,9.09957 -4.32088,4.2378 -7.54997,6.21923 -13.32091,8.17391 -3.803716,1.28836 -12.027685,1.60313 -16.308105,0.62423 z m 13.482996,-6.8011 c 4.637209,-1.20784 8.119079,-3.25071 11.779539,-6.91117 8.40239,-8.40236 9.95637,-21.02777 3.86711,-31.418314 l -1.4502,-2.474537 -18.176198,18.166831 c -20.049888,20.03961 -18.855863,18.28209 -14.095597,20.74732 5.178315,2.68174 12.211798,3.41711 18.075346,1.88987 z m 8.301929,-46.17563 c -6.0071,-4.531195 -16.247029,-5.784044 -23.847369,-2.917731 -6.488874,2.447145 -12.473724,8.406335 -15.081904,15.017257 -1.044307,2.647014 -1.27421,4.304024 -1.26615,9.125764 0.01067,6.27078 0.613426,8.65684 3.380891,13.37917 l 1.450184,2.47454 18.176205,-18.16686 C 107.15081,86.476231 108.79069,84.671867 107.89691,83.99769 Z"
       id="path5433" /></g></svg>
