<?xml version="1.0" encoding="UTF-8" standalone="no"?>
<!-- Created with Inkscape (http://www.inkscape.org/) -->

<svg
   width="101.6mm"
   height="101.59995mm"
   viewBox="0 0 101.6 101.59994"
   version="1.1"
   id="svg609"
   inkscape:version="1.2 (dc2aedaf03, 2022-05-15)"
   sodipodi:docname="IconXLSX.svg"
   xmlns:inkscape="http://www.inkscape.org/namespaces/inkscape"
   xmlns:sodipodi="http://sodipodi.sourceforge.net/DTD/sodipodi-0.dtd"
   xmlns="http://www.w3.org/2000/svg"
   xmlns:svg="http://www.w3.org/2000/svg">
  <sodipodi:namedview
     id="namedview611"
     pagecolor="#ffffff"
     bordercolor="#999999"
     borderopacity="1"
     inkscape:showpageshadow="0"
     inkscape:pageopacity="0"
     inkscape:pagecheckerboard="0"
     inkscape:deskcolor="#d1d1d1"
     inkscape:document-units="mm"
     showgrid="false"
     inkscape:zoom="0.2102413"
     inkscape:cx="145.0714"
     inkscape:cy="145.0714"
     inkscape:window-width="1366"
     inkscape:window-height="684"
     inkscape:window-x="0"
     inkscape:window-y="0"
     inkscape:window-maximized="1"
     inkscape:current-layer="layer1" />
  <defs
     id="defs606" />
  <g
     inkscape:label="Capa 1"
     inkscape:groupmode="layer"
     id="layer1"
     transform="translate(-138.21774,-39.232589)">
    <path
       style="fill:#165016;stroke-width:0.130667"
       d="m 193.15322,140.4014 c -3.39831,-0.69114 -43.48875,-8.64689 -49.40027,-9.80839 -2.86072,-0.55675 -5.29906,-1.0559 -5.37585,-1.0751 -0.12672,-0.0392 -0.15936,-8.05558 -0.15936,-39.501735 V 50.563394 l 7.5262,-1.497463 c 33.14023,-6.606117 49.4425,-9.833342 49.6537,-9.833342 0.19199,0 0.19199,0.142259 0.38399,2.438177 0.0461,1.343878 0.0845,3.597752 0.0845,5.012663 v 2.574484 l 6.12463,0.08908 c 3.37911,0.04896 12.46046,0.08908 20.19785,0.08908 h 14.07323 l 0.76797,0.403163 c 0.95998,0.499155 1.95835,1.612653 2.39994,2.580245 l 0.38399,0.710335 0.002,36.906325 0.002,36.906329 -0.38399,0.84472 c -0.38399,0.95991 -1.34397,1.90063 -2.26554,2.40938 l -0.57598,0.34557 -20.29386,0.0927 -20.29193,0.0925 -0.0154,2.42858 c -0.0307,4.1641 -0.16703,7.6409 -0.38399,7.67546 -0.071,0.0177 -1.15197,-0.1701 -2.36154,-0.42236 z M 235.75111,90.051884 V 53.462137 h -19.96362 -19.96362 v 3.28866 3.29058 h 6.93101 6.91181 v 4.565343 4.565343 h -6.91181 -6.93101 v 1.74704 1.747041 l 6.96941,0.03475 6.96941,0.03475 0.0326,4.5999 0.0346,4.5999 h -7.00781 -7.00781 v 1.881428 1.881429 h 7.00781 7.00781 v 4.565343 4.565343 h -7.00781 -7.00781 v 1.74704 1.747041 l 6.96941,0.03475 6.95021,0.03475 0.0326,4.597982 0.0346,4.59798 h -7.00781 -7.00781 v 1.61266 1.61265 h 6.93101 6.91181 v 4.63253 4.63254 h -6.91181 -6.93101 v 3.29058 3.29058 h 19.96362 19.96362 z M 213.3722,115.42985 v -4.63253 h 7.92938 7.92939 v 4.63253 4.63254 h -7.92939 -7.92938 z m 0.0307,-12.4539 0.0326,-4.599898 h 7.89099 7.87179 l 0.0326,4.599898 0.0326,4.59798 h -7.94859 -7.94858 z m -0.0307,-12.722676 v -4.565343 h 7.92938 7.92939 v 4.565343 4.565343 h -7.92939 -7.92938 z m 0,-12.956897 V 72.66384 h 7.92938 7.92939 v 4.632537 4.632537 h -7.92939 -7.92938 z m 0,-12.688121 v -4.565343 h 7.92938 7.92939 v 4.565343 4.565343 h -7.92939 -7.92938 z M 178.02211,107.3017 c 0,-0.0772 -2.03515,-4.18714 -4.53108,-9.134525 l -4.53107,-8.994379 4.39667,-8.838873 c 2.41913,-4.860996 4.39668,-8.911826 4.39668,-8.998218 0,-0.10463 -0.14207,-0.135347 -0.38399,-0.08966 -0.19007,0.03859 -1.91995,0.168945 -3.66709,0.287974 -1.97755,0.134196 -3.30232,0.287974 -3.39832,0.364767 -0.19199,0.287973 -4.53107,10.365133 -4.89587,11.632217 -0.19199,0.710336 -0.38399,1.363076 -0.38399,1.478265 -0.0365,0.110774 -0.19007,-0.287973 -0.38399,-0.863921 -0.19199,-0.940714 -4.26228,-11.3884 -4.41587,-11.565023 -0.0749,-0.08082 -6.95022,0.422361 -7.02702,0.518352 -0.0346,0.03494 1.53596,3.699502 3.68631,8.143896 l 3.7439,8.080543 -3.7631,7.414362 c -4.22389,8.332043 -4.41589,8.700653 -4.33909,8.775523 0.0941,0.0996 6.75822,0.55675 6.85422,0.47996 0.19199,-0.30718 4.76147,-10.889253 4.99186,-11.758934 l 0.38399,-1.055904 0.192,0.921516 c 0.19007,1.017507 5.12626,12.676602 5.35665,12.749562 0.10368,0.0353 6.00944,0.47995 7.5454,0.57595 0.15744,0.009 0.192,-0.0461 0.192,-0.12307 z"
       id="path316-7" />
  </g>
</svg>
